<svg width="188" height="188" viewBox="0 0 188 188" fill="none" xmlns="http://www.w3.org/2000/svg">
<circle cx="94" cy="94" r="94" fill="#232323"/>
<g filter="url(#filter0_i_13_4)">
<path d="M81.28 88.856C85.888 88.856 89.728 88.6 92.8 88.088C95.9573 87.4907 98.432 86.5947 100.224 85.4C102.101 84.2053 103.424 82.6693 104.192 80.792C105.045 78.9147 105.472 76.696 105.472 74.136H109.952V109.08H105.472C105.472 106.52 105.088 104.301 104.32 102.424C103.637 100.547 102.357 99.0107 100.48 97.816C98.688 96.536 96.2133 95.5973 93.056 95C89.984 94.3173 86.0587 93.976 81.28 93.976V122.904C81.28 125.72 81.6213 128.067 82.304 129.944C82.9867 131.736 84.1387 133.229 85.76 134.424C87.4667 135.533 89.6853 136.344 92.416 136.856C95.1467 137.283 98.5173 137.496 102.528 137.496C107.051 137.496 110.891 137.197 114.048 136.6C117.205 135.917 119.851 134.808 121.984 133.272C124.117 131.736 125.824 129.731 127.104 127.256C128.384 124.696 129.451 121.539 130.304 117.784H135.168L133.248 143H53.76V138.136C56.7467 138.051 59.136 137.795 60.928 137.368C62.8053 136.941 64.256 136.216 65.28 135.192C66.304 134.168 66.9867 132.717 67.328 130.84C67.6693 128.963 67.84 126.531 67.84 123.544V63.896C67.84 60.9093 67.6693 58.52 67.328 56.728C67.072 54.8507 66.4747 53.4 65.536 52.376C64.6827 51.2667 63.4027 50.5413 61.696 50.2C59.9893 49.7733 57.7707 49.4747 55.04 49.304V44.44H129.024L130.176 66.968H125.696C125.184 63.5547 124.331 60.7813 123.136 58.648C122.027 56.4293 120.448 54.68 118.4 53.4C116.437 52.12 113.92 51.224 110.848 50.712C107.776 50.2 104.064 49.944 99.712 49.944H83.456C82.0053 49.944 81.28 50.6693 81.28 52.12V88.856Z" fill="#F36F24"/>
</g>
<defs>
<filter id="filter0_i_13_4" x="53.76" y="44.44" width="81.408" height="102.56" filterUnits="userSpaceOnUse" color-interpolation-filters="sRGB">
<feFlood flood-opacity="0" result="BackgroundImageFix"/>
<feBlend mode="normal" in="SourceGraphic" in2="BackgroundImageFix" result="shape"/>
<feColorMatrix in="SourceAlpha" type="matrix" values="0 0 0 0 0 0 0 0 0 0 0 0 0 0 0 0 0 0 127 0" result="hardAlpha"/>
<feOffset dy="4"/>
<feGaussianBlur stdDeviation="2"/>
<feComposite in2="hardAlpha" operator="arithmetic" k2="-1" k3="1"/>
<feColorMatrix type="matrix" values="0 0 0 0 0 0 0 0 0 0 0 0 0 0 0 0 0 0 0.25 0"/>
<feBlend mode="normal" in2="shape" result="effect1_innerShadow_13_4"/>
</filter>
</defs>
</svg>
